HIERARCHY
ROOT pelvis
{
  OFFSET 0 100 0
  CHANNELS 6 Xposition Yposition Zposition Zrotation Xrotation Yrotation
  JOINT pelvis_right_femur
  {
    OFFSET -10.78128 -3.44521 -0.5502486
    CHANNELS 3 Zrotation Xrotation Yrotation
    JOINT right_femur_tibia
    {
      OFFSET -0.8047443 -44.0398 -0.1307829
      CHANNELS 3 Zrotation Xrotation Yrotation
      JOINT right_tibia_foot
      {
        OFFSET 3.006224 -47.83518 -5
        CHANNELS 3 Zrotation Xrotation Yrotation
        End Site
        {
          OFFSET 0 -5 15
        }
      }
    }
  }
  JOINT pelvis_left_femur
  {
    OFFSET 10.78128 -3.44521 -0.5502486
    CHANNELS 3 Zrotation Xrotation Yrotation
    JOINT left_femur_tibia
    {
      OFFSET 0.8047443 -44.0398 -0.1307829
      CHANNELS 3 Zrotation Xrotation Yrotation
      JOINT left_tibia_foot
      {
        OFFSET -4.370144 -48.10324 -4.275266
        CHANNELS 3 Zrotation Xrotation Yrotation
        End Site
        {
          OFFSET 0 -5 15
        }
      }
    }
  }
  JOINT pelvis_spine1
  {
    OFFSET 0 6.468898 -3.129235
    CHANNELS 3 Zrotation Xrotation Yrotation
    JOINT spine1
    {
      OFFSET 0 23.15396 4.99043
      CHANNELS 3 Zrotation Xrotation Yrotation
      JOINT spine2
      {
        OFFSET 0 20.79997 -5.064912
        CHANNELS 3 Zrotation Xrotation Yrotation
        JOINT neck
        {
          OFFSET 0 14.38658 9.616178
          CHANNELS 3 Zrotation Xrotation Yrotation
          End Site
          {
            OFFSET 0 20 0
          }
        }
      }
      JOINT right_manubrium
      {
        OFFSET -5.722621 16.35077 3.967754
        CHANNELS 3 Zrotation Xrotation Yrotation
        JOINT right_clavicle
        {
          OFFSET -13.16364 1.694482 -4.693211
          CHANNELS 3 Zrotation Xrotation Yrotation
          JOINT right_humerus
          {
            OFFSET -28.5034 -0.3100689 -2.792744
            CHANNELS 3 Zrotation Xrotation Yrotation
            JOINT right_radius
            {
              OFFSET -25.15693 0.02248979 -1.271978
              CHANNELS 3 Zrotation Xrotation Yrotation
              End Site
              {
                OFFSET -15 0 0
              }
            }
          }
        }
      }
      JOINT left_manubrium
      {
        OFFSET 5.722621 16.35077 3.967754
        CHANNELS 3 Zrotation Xrotation Yrotation
        JOINT left_clavicle
        {
          OFFSET 13.16364 1.694482 -4.693211
          CHANNELS 3 Zrotation Xrotation Yrotation
          JOINT left_humerus
          {
            OFFSET 29.39168 -1.063119 -2.237045
            CHANNELS 3 Zrotation Xrotation Yrotation
            JOINT left_radius
            {
              OFFSET 24.59957 -0.9528479 0.9047498
              CHANNELS 3 Zrotation Xrotation Yrotation
              End Site
              {
                OFFSET 15 -0 -0
              }
            }
          }
        }
      }
    }
  }
}
MOTION
Frames: 7
Frame Time: 0.0416666666667
0 103.5113 0 0.9204362 -1.116732 -0.1285768 3.264715 -17.15084 8.664373 -0 35.70228 -0 -5.133258 -16.07169 -3.866736 -6.713893 11.45044 -23.16571 -0 5.298142 -0 4.872786 -19.09069 25.0277 -3.02311 -3.100491 3.732538 3.44961 7.582174 -8.829767 0.5478499 19.93842 9.000626 4.447088 -26.42215 9.652075 6.467118 -18.03002 12.9163 82.38444 31.92663 -16.52402 -0 0 18.87161 -11.41142 10.47018 6.463815 9.079929 -21.19333 4.695449 -94.84251 19.05754 21.37779 0 0 -6.75156 11.28891 19.45279 -2.632829
0.2505124 103.4375 1.553727 -0.06164648 -0.6074198 -0.2799203 4.339286 -20.09544 8.801784 -0 37.08649 -0 -5.923969 -14.2595 -4.231648 -5.966136 11.23889 -22.38391 -0 6.209019 -0 2.689297 -20.50272 23.71647 -2.97312 -3.04824 3.721047 3.4427 7.606754 -8.840018 0.5337263 19.88776 9.043014 4.467815 -26.48233 9.669423 6.358272 -18.03732 12.89717 82.61443 31.91534 -16.70888 -0 0 18.68255 -11.49248 10.46912 6.528431 9.066188 -21.24949 4.580586 -94.64855 19.08988 21.18403 0 0 -7.265951 11.18607 19.12191 -2.463586
0.5301664 103.1981 3.357965 -0.5091326 0.7325171 -0.3293147 5.301694 -24.55947 8.909173 -0 33.682 -0 -5.87347 -13.0149 -4.262481 -5.766406 11.30112 -21.53448 -0 5.940009 -0 3.24354 -21.77399 23.02917 -2.650193 -2.634241 3.636299 3.497045 7.783076 -9.003258 0.4346388 19.49843 9.37152 4.640046 -26.9755 9.851512 5.781385 -18.07525 12.75143 84.12387 32.45592 -17.98366 -0 0 17.18143 -11.4605 10.42146 6.663155 8.959202 -21.68462 3.772113 -93.04196 19.22908 19.43521 0 0 -11.56375 11.08263 16.77949 -1.968327
0.8031098 102.658 5.614706 -0.6550394 1.656863 -0.235862 5.53038 -28.40016 7.844464 -0 28.56528 -0 -6.001379 -11.15974 -3.940759 -5.692446 11.96186 -20.18182 -0 5.672934 -0 3.720986 -22.83674 21.7329 -2.459537 -2.408129 3.42481 3.699831 7.8111 -9.239857 0.3694884 19.23141 9.622326 4.777683 -27.38908 9.997399 5.58729 -17.93806 12.69135 84.97314 32.7907 -18.9264 -0 0 16.05052 -11.14924 10.46777 6.622273 8.955609 -22.06325 3.350055 -92.01175 19.21738 17.99179 0 0 -14.35042 11.20205 15.64641 -1.933497
1.061368 101.8673 8.314547 -0.7616432 2.586644 0.0009824847 5.79265 -31.81827 7.153155 -0 23.67478 -0 -6.000354 -9.711072 -3.727122 -5.659003 12.75171 -19.18001 -0 5.772563 -0 4.123088 -23.75427 20.67838 -2.271675 -2.149375 3.266607 3.868291 7.882302 -9.439174 0.3149898 18.98315 9.841248 4.900775 -27.7469 10.14191 5.395101 -17.82846 12.61963 85.85446 33.34144 -19.83391 -0 0 14.88172 -10.76074 10.47998 6.533114 8.9098 -22.41246 2.856791 -90.90343 19.20204 16.54374 0 0 -17.31244 11.47095 14.36589 -2.02499
1.279533 100.8779 11.55909 -0.8440272 3.313297 0.3979592 5.900776 -34.49357 6.257406 -0 19.01544 -0 -6.143509 -7.966817 -3.411454 -5.61454 13.79287 -18.132 -0 6.618747 -0 4.151794 -24.2591 19.42806 -2.11214 -1.924809 3.110116 4.036711 7.943485 -9.617898 0.2746579 18.7795 10.01945 5.003587 -28.04454 10.2679 5.268403 -17.69734 12.56633 86.60795 33.87666 -20.63725 -0 0 13.80908 -10.35203 10.49825 6.428606 8.865062 -22.72239 2.414596 -89.93435 19.15965 15.24221 0 0 -19.90061 11.78338 13.29685 -2.189491
1.444362 99.83668 15.38913 -1.072234 3.867511 0.9683425 6.21705 -36.22758 5.622845 -0 15.72291 -0 -6.532669 -6.230444 -3.082071 -5.440241 14.86756 -17.29145 -0 8.530257 -0 3.524233 -24.20068 18.05455 -1.969324 -1.70803 3.009636 4.147073 8.051873 -9.735898 0.2517362 18.62406 10.1365 5.075478 -28.22694 10.36107 5.155462 -17.58672 12.51329 87.3199 34.45313 -21.35 -0 0 12.81597 -10.00083 10.51295 6.338956 8.790468 -22.97372 1.938786 -89.03673 19.12968 14.1226 0 0 -22.25498 12.12078 12.24052 -2.35391
